<svg clip-rule="evenodd" fill-rule="evenodd" stroke-linejoin="round" stroke-miterlimit="2" viewBox="0 0 134 134" xmlns="http://www.w3.org/2000/svg"><path d="m0 0h133.333v133.333h-133.333z" fill="#ffd01c"/><path d="m91.667 20.833c9.204 0 16.666 7.462 16.666 16.667v55.02c0 7.008-4.383 13.267-10.969 15.663l-29.273 10.648c-2.163.787-4.553-.329-5.34-2.491-.166-.457-.251-.939-.251-1.425v-6.555c0-2.302-1.866-4.167-4.167-4.167h-16.666c-9.205 0-16.667-7.462-16.667-16.667v-50.026c0-9.205 7.462-16.667 16.667-16.667zm2.848 79.519c3.293-1.198 5.485-4.328 5.485-7.832v-55.02c0-4.602-3.731-8.333-8.333-8.333h-50c-4.603 0-8.334 3.731-8.334 8.333v50.026c0 4.603 3.731 8.334 8.334 8.334h16.666c6.904 0 12.5 5.596 12.5 12.5v.606zm-33.744-21.047c-.533 0-1.066-.203-1.472-.609l-14.74-14.722c-.814-.813-.815-2.132-.002-2.946.001-.001.002-.001.002-.002l2.948-2.944c.813-.813 2.131-.813 2.944 0l10.32 10.307 22.111-22.085c.813-.813 2.131-.813 2.944 0l2.948 2.944c.814.813.815 2.132.002 2.947-.001 0-.001.001-.002.001l-26.531 26.5c-.407.406-.939.609-1.472.609z" fill-rule="nonzero"/></svg>